<svg width="92" height="32" viewBox="0 0 92 32" fill="none" xmlns="http://www.w3.org/2000/svg">
<path d="M20.8163 29.6339H20.2534C20.2534 29.6279 20.2506 29.6219 20.2495 29.6163L20.2341 29.5475C20.2242 29.5022 20.2135 29.4573 20.2025 29.4127C20.1978 29.3918 20.1926 29.3708 20.1875 29.3499C20.1729 29.2911 20.1575 29.2323 20.1417 29.1736L20.137 29.1568C20.1196 29.0931 20.1014 29.0298 20.0825 28.9666L20.0635 28.9056C20.0505 28.8622 20.0367 28.8192 20.0241 28.7761C20.0166 28.7526 20.0087 28.7294 20.0012 28.7062C19.9874 28.6646 19.9731 28.6231 19.9585 28.5819C19.951 28.5602 19.9431 28.5381 19.9356 28.5168C19.9172 28.4652 19.8983 28.4139 19.8788 28.363C19.8745 28.3521 19.8709 28.3417 19.8666 28.3308C19.8437 28.2709 19.8196 28.2114 19.7951 28.1519C19.7864 28.1302 19.7773 28.1089 19.7683 28.0875C19.7517 28.0501 19.7351 28.009 19.7181 27.97L19.6862 27.8978C19.6696 27.8604 19.6526 27.823 19.6352 27.7855C19.6246 27.7623 19.6135 27.7387 19.6025 27.7155C19.5823 27.6725 19.563 27.6298 19.5405 27.5875C19.5322 27.5715 19.5247 27.555 19.5164 27.5385C19.4884 27.4828 19.4596 27.4263 19.4304 27.3724L19.3909 27.3024L19.3352 27.201L19.2918 27.1261C19.2736 27.0947 19.2555 27.0632 19.2369 27.0318C19.2223 27.0063 19.2073 26.9809 19.1923 26.9569C19.1718 26.9229 19.1529 26.8896 19.1304 26.8559L19.0735 26.7646C19.0467 26.7227 19.0198 26.6804 18.9922 26.6388C18.9748 26.6126 18.9575 26.5868 18.9397 26.561C18.9219 26.5352 18.9026 26.5056 18.8836 26.4783C18.8647 26.451 18.8442 26.4237 18.8268 26.3967C18.8094 26.3698 18.7905 26.3454 18.7719 26.3219C18.7534 26.2983 18.7324 26.2668 18.7123 26.2395L18.6567 26.1647C18.6172 26.1149 18.5809 26.0651 18.5422 26.015L18.4881 25.9465C18.4652 25.9177 18.4415 25.8892 18.4182 25.8608L18.3661 25.7979C18.342 25.7691 18.3176 25.7407 18.2931 25.7118L18.2418 25.6527L18.1652 25.5659L18.1198 25.5157C18.0254 25.4121 17.9287 25.3099 17.8297 25.2104L17.7862 25.1666L17.6954 25.0779L17.6508 25.0352C17.6192 25.0049 17.5877 24.975 17.5557 24.9454L17.5229 24.9155C17.4112 24.8125 17.2963 24.7122 17.1795 24.6161L17.1475 24.5895C17.1115 24.5595 17.0752 24.53 17.0386 24.5008L17.0023 24.4716C16.9628 24.4417 16.9269 24.4121 16.8886 24.3825L16.8692 24.3679C16.7401 24.2691 16.6079 24.173 16.4745 24.0805L16.4559 24.0674C16.4137 24.0386 16.3714 24.0102 16.3288 23.9821L16.3008 23.9637C16.2574 23.9349 16.2135 23.9069 16.1697 23.8788L16.1622 23.8743C16.017 23.7822 15.8689 23.694 15.7181 23.6097L15.7122 23.606C15.6645 23.5794 15.6167 23.5536 15.5689 23.5278L15.548 23.5165C15.2938 23.3806 15.0327 23.2558 14.7648 23.1423L14.7482 23.1352C14.6776 23.1052 14.6065 23.0764 14.5347 23.048H15.9475C16.1776 23.048 16.3643 22.7969 16.3643 22.4866C16.3643 22.1764 16.1776 21.9252 15.9475 21.9252H15.5267C15.5527 21.8624 15.5816 21.7913 15.6127 21.7112C16.0106 21.4762 16.7109 20.9754 17.4057 20.0555L17.4112 20.0484C17.4639 19.9796 17.5156 19.9083 17.5664 19.8347L17.5766 19.8201C17.6271 19.7479 17.6777 19.6734 17.7274 19.5956L17.7408 19.575C17.7645 19.5376 17.7882 19.5001 17.8119 19.4627C17.8119 19.4627 17.8119 19.4597 17.8147 19.4579C17.8391 19.4204 17.8632 19.3793 17.8873 19.3392L17.9027 19.3134C17.9232 19.279 17.9441 19.2438 17.9643 19.2082C17.9682 19.2019 17.9722 19.1955 17.9757 19.1888C17.999 19.1484 18.0223 19.1072 18.0452 19.0656L18.061 19.0368C18.0799 19.0024 18.0985 18.9676 18.117 18.9324C18.1226 18.9227 18.1281 18.9126 18.1332 18.9025C18.1553 18.8602 18.1774 18.8175 18.1995 18.7741L18.2149 18.7438C18.2323 18.7086 18.2501 18.6727 18.2674 18.6368L18.2864 18.5993C18.3077 18.5552 18.3286 18.5103 18.3495 18.465L18.3626 18.4362C18.3799 18.3987 18.3969 18.3613 18.4139 18.3239L18.434 18.279C18.4537 18.2337 18.4735 18.188 18.4924 18.142C18.496 18.1338 18.4995 18.1252 18.5027 18.1169C18.5205 18.0746 18.5378 18.0316 18.5552 17.9882L18.5749 17.9388C18.5911 17.8976 18.6073 17.8561 18.6231 17.8146L18.6349 17.7831C18.6535 17.7337 18.6716 17.6832 18.6898 17.6334L18.7088 17.5803C18.723 17.5406 18.7368 17.5002 18.7506 17.4598C18.7557 17.4448 18.7609 17.4298 18.7656 17.4149C18.783 17.3632 18.8003 17.3104 18.8173 17.2577C18.8228 17.2393 18.8288 17.2203 18.8343 17.203L18.8738 17.0799C18.8789 17.0619 18.8844 17.0425 18.8896 17.0264C18.9057 16.9721 18.9219 16.9167 18.9373 16.861C18.9424 16.8434 18.9472 16.8254 18.9519 16.8075C18.9638 16.7644 18.9756 16.7214 18.9871 16.6776C18.9922 16.6578 18.9973 16.6379 19.0028 16.6181C19.0175 16.5605 19.0321 16.5025 19.0463 16.4437L19.0581 16.3947C19.0692 16.3479 19.0802 16.3007 19.0909 16.2532L19.1051 16.1896C19.1185 16.1286 19.1319 16.0676 19.1446 16.0055C19.1473 15.9935 19.1497 15.9811 19.1521 15.968C19.1631 15.9145 19.1738 15.8603 19.184 15.806C19.1884 15.7839 19.1923 15.7618 19.1967 15.7397C19.2069 15.684 19.2168 15.6275 19.2267 15.5717C19.2286 15.5597 19.231 15.5481 19.233 15.5365C19.244 15.4707 19.2548 15.4043 19.2654 15.3374C19.2689 15.315 19.2725 15.2925 19.2756 15.2697C19.2839 15.2154 19.2918 15.1608 19.2997 15.1054L19.3068 15.0545C19.3163 14.9856 19.3254 14.9164 19.334 14.846C19.3368 14.824 19.3392 14.8019 19.3419 14.7794C19.3488 14.7235 19.3551 14.6674 19.3609 14.611C19.3633 14.5908 19.3656 14.571 19.3676 14.5508C19.3752 14.4784 19.3823 14.4054 19.3889 14.3318C19.3889 14.3113 19.3925 14.2907 19.394 14.2697C19.3992 14.2106 19.4043 14.1511 19.4086 14.0912C19.4086 14.0691 19.4122 14.047 19.4138 14.025C19.4193 13.9486 19.4244 13.8718 19.4292 13.7944C19.4292 13.7768 19.4292 13.757 19.4319 13.7413C19.4355 13.6769 19.439 13.6122 19.4418 13.5471C19.4418 13.5235 19.4418 13.4999 19.445 13.4763C19.4481 13.3959 19.4513 13.315 19.4537 13.2331C19.4537 13.2218 19.4537 13.2102 19.4537 13.1986C19.4558 13.1258 19.4573 13.0522 19.4584 12.9778C19.4584 12.9535 19.4584 12.9292 19.4584 12.9048C19.4584 12.825 19.4584 12.7447 19.4584 12.6638V12.6451C19.4584 12.559 19.4584 12.4718 19.4584 12.3832V12.3083C19.4584 12.2335 19.4552 12.1549 19.4533 12.077V12.0347C19.4505 11.9449 19.4469 11.854 19.4434 11.7627C19.4434 11.7391 19.441 11.7151 19.4402 11.6915C19.4368 11.6147 19.4329 11.5374 19.4284 11.4595C19.4284 11.4404 19.4284 11.4221 19.4252 11.4015C19.4197 11.3079 19.4136 11.2136 19.4071 11.1186L19.4023 11.0523C19.3964 10.973 19.3905 10.8933 19.3838 10.8128C19.3838 10.7896 19.3802 10.7664 19.3783 10.7432C19.37 10.6459 19.3609 10.5475 19.3514 10.4487C19.3514 10.43 19.3475 10.4113 19.3459 10.3922C19.3376 10.308 19.3285 10.223 19.3194 10.1373C19.3167 10.1115 19.3139 10.086 19.3108 10.0602C19.2997 9.95843 19.2879 9.85626 19.2752 9.75259C19.2752 9.73987 19.2717 9.72715 19.2701 9.71517C19.2588 9.62236 19.2468 9.52905 19.2342 9.43524C19.2302 9.40754 19.2267 9.37985 19.2227 9.35216C19.208 9.24587 19.1929 9.13871 19.1773 9.03068C17.5983 -1.62554 6.40876 0.103841 6.40876 0.103841L6.76719 2.39347L0 9.17102L0.295667 11.7881L2.85917 13.2851C2.97345 13.0097 3.12017 12.7474 3.29655 12.5033C4.95055 10.6946 8.15947 9.27468 9.07805 8.98015C9.26201 8.9214 9.36662 8.89183 9.36662 8.89183C4.97266 14.2832 5.47241 20.4597 5.66821 21.932C5.46452 21.9694 5.30701 22.2026 5.30701 22.487C5.30701 22.7969 5.49373 23.0484 5.72387 23.0484H7.13668C4.78699 23.9808 2.92185 25.7567 1.94848 27.9884C1.94734 27.9914 1.94602 27.9944 1.94454 27.9973C1.87269 28.163 1.80585 28.331 1.74401 28.5015C1.74411 28.5032 1.74411 28.5049 1.74401 28.5067C1.72743 28.5531 1.71124 28.5995 1.69545 28.6463C1.68953 28.6631 1.68361 28.68 1.67808 28.6972C1.66387 28.7391 1.65071 28.7814 1.63861 28.8241C1.6315 28.8458 1.62479 28.8678 1.61808 28.8895C1.60545 28.9296 1.59321 28.97 1.58137 29.0104L1.56005 29.0853C1.549 29.1227 1.53795 29.1627 1.52768 29.2017C1.52018 29.2294 1.51308 29.2567 1.50597 29.2844C1.4965 29.3218 1.48663 29.3592 1.47755 29.3966C1.46847 29.4341 1.45978 29.4715 1.4511 29.5112C1.44241 29.5508 1.43136 29.5972 1.42189 29.6407H0.85858C0.750258 29.6384 0.642551 29.6567 0.541778 29.6944C0.441006 29.7321 0.3492 29.7886 0.271747 29.8604C0.194294 29.9322 0.13275 30.018 0.0907365 30.1127C0.0487226 30.2074 0.0270812 30.3091 0.0270812 30.4118C0.0270812 30.5145 0.0487226 30.6162 0.0907365 30.7109C0.13275 30.8056 0.194294 30.8913 0.271747 30.9632C0.3492 31.035 0.441006 31.0914 0.541778 31.1292C0.642551 31.1669 0.750258 31.1852 0.85858 31.1829H20.8234C20.9318 31.1852 21.0395 31.1669 21.1402 31.1292C21.241 31.0914 21.3328 31.035 21.4103 30.9632C21.4877 30.8913 21.5493 30.8056 21.5913 30.7109C21.6333 30.6162 21.6549 30.5145 21.6549 30.4118C21.6549 30.3091 21.6333 30.2074 21.5913 30.1127C21.5493 30.018 21.4877 29.9322 21.4103 29.8604C21.3328 29.7886 21.241 29.7321 21.1402 29.6944C21.0395 29.6567 20.9318 29.6384 20.8234 29.6407L20.8163 29.6339Z" fill="#595653"/>
<path d="M44.2035 29.6339H43.6406C43.6406 29.6279 43.6379 29.6219 43.6367 29.6163L43.6213 29.5475C43.6114 29.5022 43.6007 29.4573 43.5897 29.4127C43.585 29.3918 43.5798 29.3708 43.5747 29.3499C43.5601 29.2911 43.5447 29.2323 43.5289 29.1736L43.5242 29.1568C43.5068 29.0931 43.4886 29.0298 43.4697 28.9666L43.4507 28.9056C43.4377 28.8622 43.4239 28.8192 43.4113 28.7761C43.4038 28.7526 43.3959 28.7294 43.3884 28.7062C43.3746 28.6646 43.3603 28.6231 43.3457 28.5819C43.3382 28.5602 43.3303 28.5381 43.3228 28.5168C43.3044 28.4652 43.2855 28.4139 43.266 28.363C43.2617 28.3521 43.2581 28.3417 43.2538 28.3308C43.2309 28.2709 43.2068 28.2114 43.1823 28.1519C43.1736 28.1302 43.1646 28.1089 43.1555 28.0875C43.1389 28.0501 43.1223 28.009 43.1053 27.97L43.0734 27.8978C43.0568 27.8604 43.0398 27.8229 43.0224 27.7855C43.0118 27.7623 43.0007 27.7387 42.9897 27.7155C42.9695 27.6725 42.9502 27.6298 42.9277 27.5875C42.9194 27.5715 42.9119 27.555 42.9036 27.5385C42.8756 27.4828 42.8468 27.4262 42.8176 27.3724L42.7781 27.3024L42.7224 27.201L42.679 27.1261C42.6609 27.0947 42.6427 27.0632 42.6241 27.0318C42.6095 27.0063 42.5945 26.9809 42.5795 26.9569C42.559 26.9229 42.5401 26.8896 42.5176 26.8559L42.4607 26.7646C42.4339 26.7227 42.407 26.6804 42.3794 26.6388C42.362 26.6126 42.3447 26.5868 42.3269 26.561C42.3091 26.5352 42.2898 26.5056 42.2708 26.4783C42.2519 26.451 42.2314 26.4237 42.214 26.3967C42.1966 26.3698 42.1777 26.3454 42.1591 26.3219C42.1406 26.2983 42.1197 26.2668 42.0995 26.2395L42.0439 26.1647C42.0044 26.1149 41.9681 26.0651 41.9294 26.015L41.8753 25.9465C41.8524 25.9177 41.8287 25.8892 41.8054 25.8608L41.7533 25.7979C41.7292 25.7691 41.7048 25.7407 41.6803 25.7118L41.629 25.6527L41.5524 25.5659L41.507 25.5157C41.4127 25.4121 41.3159 25.3099 41.2169 25.2104L41.1734 25.1666L41.0826 25.0779L41.038 25.0352C41.0065 25.0049 40.9749 24.975 40.9429 24.9454L40.9101 24.9155C40.7984 24.8125 40.6836 24.7122 40.5667 24.6161L40.5347 24.5895C40.4987 24.5595 40.4624 24.53 40.4258 24.5008L40.3895 24.4716C40.35 24.4417 40.3141 24.4121 40.2758 24.3825L40.2564 24.3679C40.1273 24.2691 39.9951 24.173 39.8617 24.0805L39.8431 24.0674C39.8009 24.0386 39.7587 24.0102 39.716 23.9821L39.688 23.9637C39.6446 23.9349 39.6008 23.9069 39.5569 23.8788L39.5494 23.8743C39.4042 23.7822 39.2561 23.694 39.1053 23.6097L39.0994 23.606C39.0517 23.5794 39.0039 23.5536 38.9561 23.5278L38.9352 23.5165C38.681 23.3806 38.4199 23.2558 38.152 23.1423L38.1354 23.1352C38.0648 23.1052 37.9937 23.0764 37.9219 23.048H39.3347C39.5648 23.048 39.7515 22.7969 39.7515 22.4866C39.7515 22.1764 39.5648 21.9252 39.3347 21.9252H38.9139C38.9399 21.8624 38.9688 21.7913 38.9999 21.7112C39.3979 21.4762 40.0981 20.9754 40.7929 20.0555L40.7984 20.0484C40.8511 19.9796 40.9028 19.9083 40.9536 19.8347L40.9638 19.8201C41.0144 19.7479 41.0649 19.6734 41.1146 19.5956L41.128 19.575C41.1517 19.5376 41.1754 19.5001 41.1991 19.4627C41.1991 19.4627 41.1991 19.4597 41.2019 19.4579C41.2263 19.4204 41.2504 19.3793 41.2745 19.3392L41.2899 19.3134C41.3104 19.279 41.3313 19.2438 41.3515 19.2082C41.3554 19.2019 41.3594 19.1955 41.3629 19.1888C41.3862 19.1484 41.4095 19.1072 41.4324 19.0656L41.4482 19.0368C41.4671 19.0024 41.4857 18.9676 41.5042 18.9324C41.5098 18.9227 41.5153 18.9126 41.5204 18.9025C41.5425 18.8602 41.5646 18.8175 41.5867 18.7741L41.6021 18.7438C41.6195 18.7086 41.6373 18.6727 41.6546 18.6368L41.6736 18.5993C41.6949 18.5552 41.7158 18.5103 41.7367 18.465L41.7498 18.4362C41.7671 18.3987 41.7841 18.3613 41.8011 18.3239L41.8212 18.279C41.841 18.2337 41.8607 18.188 41.8796 18.142C41.8832 18.1338 41.8867 18.1252 41.8899 18.1169C41.9077 18.0747 41.925 18.0316 41.9424 17.9882L41.9621 17.9388C41.9783 17.8976 41.9945 17.8561 42.0103 17.8146L42.0221 17.7831C42.0407 17.7337 42.0589 17.6832 42.077 17.6334L42.096 17.5803C42.1102 17.5406 42.124 17.5002 42.1378 17.4598C42.1429 17.4448 42.1481 17.4298 42.1528 17.4149C42.1702 17.3632 42.1875 17.3104 42.2045 17.2577C42.21 17.2393 42.216 17.2203 42.2215 17.203L42.261 17.0799C42.2661 17.0619 42.2716 17.0425 42.2768 17.0264C42.2929 16.9721 42.3091 16.9167 42.3245 16.861C42.3297 16.8434 42.3344 16.8254 42.3391 16.8075C42.351 16.7644 42.3628 16.7214 42.3743 16.6776C42.3794 16.6578 42.3845 16.6379 42.3901 16.6181C42.4047 16.5605 42.4193 16.5025 42.4335 16.4437L42.4453 16.3947C42.4564 16.3479 42.4674 16.3007 42.4781 16.2532L42.4923 16.1896C42.5057 16.1286 42.5191 16.0676 42.5318 16.0055C42.5345 15.9935 42.5369 15.9811 42.5393 15.968C42.5503 15.9145 42.561 15.8603 42.5712 15.806C42.5756 15.7839 42.5795 15.7618 42.5839 15.7397C42.5941 15.684 42.604 15.6275 42.6139 15.5717C42.6159 15.5597 42.6182 15.5481 42.6202 15.5365C42.6312 15.4707 42.642 15.4043 42.6526 15.3374C42.6561 15.315 42.6597 15.2925 42.6628 15.2697C42.6711 15.2154 42.679 15.1608 42.6869 15.1054L42.694 15.0545C42.7035 14.9856 42.7126 14.9164 42.7212 14.846C42.724 14.824 42.7264 14.8019 42.7291 14.7794C42.736 14.7235 42.7423 14.6674 42.7481 14.611C42.7505 14.5908 42.7528 14.571 42.7548 14.5508C42.7624 14.4784 42.7695 14.4054 42.7761 14.3318C42.7761 14.3113 42.7797 14.2907 42.7813 14.2697C42.7864 14.2106 42.7915 14.1511 42.7959 14.0912C42.7959 14.0691 42.7994 14.047 42.801 14.025C42.8065 13.9486 42.8116 13.8718 42.8164 13.7944C42.8164 13.7768 42.8164 13.757 42.8191 13.7413C42.8227 13.6769 42.8263 13.6122 42.829 13.5471C42.829 13.5235 42.829 13.4999 42.8322 13.4763C42.8353 13.3959 42.8385 13.315 42.8409 13.2331C42.8409 13.2218 42.8409 13.2102 42.8409 13.1986C42.843 13.1258 42.8445 13.0522 42.8456 12.9778C42.8456 12.9535 42.8456 12.9292 42.8456 12.9048C42.8456 12.825 42.8456 12.7447 42.8456 12.6638V12.6451C42.8456 12.559 42.8456 12.4718 42.8456 12.3832V12.3083C42.8456 12.2335 42.8424 12.1549 42.8405 12.077V12.0347C42.8377 11.9449 42.8341 11.854 42.8306 11.7627C42.8306 11.7391 42.8282 11.7151 42.8274 11.6915C42.824 11.6147 42.8201 11.5374 42.8156 11.4595C42.8156 11.4404 42.8156 11.4221 42.8124 11.4015C42.8069 11.3079 42.8009 11.2136 42.7943 11.1186L42.7895 11.0523C42.7836 10.973 42.7777 10.8933 42.771 10.8128C42.771 10.7896 42.7674 10.7664 42.7655 10.7432C42.7572 10.6459 42.7481 10.5475 42.7386 10.4487C42.7386 10.43 42.7347 10.4113 42.7331 10.3922C42.7248 10.308 42.7157 10.223 42.7066 10.1373C42.7039 10.1115 42.7011 10.086 42.698 10.0602C42.6869 9.95843 42.6751 9.85626 42.6624 9.75259C42.6624 9.73987 42.6589 9.72714 42.6573 9.71517C42.646 9.62236 42.634 9.52905 42.6214 9.43524C42.6174 9.40754 42.6139 9.37985 42.6099 9.35216C42.5952 9.24587 42.5801 9.13871 42.5645 9.03068C40.9855 -1.62554 29.796 0.103841 29.796 0.103841L30.1544 2.39347L23.3872 9.17102L23.6829 11.7881L26.2464 13.2851C26.3607 13.0097 26.5074 12.7474 26.6838 12.5033C28.3378 10.6946 31.5467 9.27468 32.4653 8.98015C32.6492 8.9214 32.7538 8.89183 32.7538 8.89183C28.3599 14.2832 28.8596 20.4597 29.0554 21.932C28.8517 21.9694 28.6942 22.2026 28.6942 22.487C28.6942 22.7969 28.8809 23.0484 29.1111 23.0484H30.5239C28.1742 23.9808 26.3091 25.7567 25.3357 27.9884C25.3345 27.9914 25.3332 27.9944 25.3317 27.9973C25.2599 28.163 25.1931 28.331 25.1312 28.5015V28.5067C25.1146 28.5531 25.0984 28.5995 25.0827 28.6463C25.0767 28.6631 25.0708 28.68 25.0653 28.6972C25.0511 28.7391 25.0379 28.7814 25.0258 28.8241C25.0187 28.8458 25.012 28.8678 25.0053 28.8895C24.9927 28.9296 24.9804 28.97 24.9686 29.0104L24.9473 29.0853C24.9362 29.1227 24.9252 29.1627 24.9149 29.2017C24.9074 29.2294 24.9003 29.2567 24.8932 29.2844C24.8837 29.3218 24.8738 29.3592 24.8648 29.3966C24.8557 29.4341 24.847 29.4715 24.8383 29.5112C24.8296 29.5508 24.8186 29.5972 24.8091 29.6407H24.2458C24.1375 29.6384 24.0298 29.6567 23.929 29.6944C23.8282 29.7321 23.7364 29.7886 23.659 29.8604C23.5815 29.9322 23.52 30.018 23.4779 30.1127C23.4359 30.2074 23.4143 30.3091 23.4143 30.4118C23.4143 30.5145 23.4359 30.6162 23.4779 30.7109C23.52 30.8056 23.5815 30.8913 23.659 30.9632C23.7364 31.035 23.8282 31.0914 23.929 31.1292C24.0298 31.1669 24.1375 31.1852 24.2458 31.1829H44.2106C44.319 31.1852 44.4267 31.1669 44.5274 31.1292C44.6282 31.0914 44.72 31.035 44.7975 30.9632C44.8749 30.8913 44.9365 30.8056 44.9785 30.7109C45.0205 30.6162 45.0421 30.5145 45.0421 30.4118C45.0421 30.3091 45.0205 30.2074 44.9785 30.1127C44.9365 30.018 44.8749 29.9322 44.7975 29.8604C44.72 29.7886 44.6282 29.7321 44.5274 29.6944C44.4267 29.6567 44.319 29.6384 44.2106 29.6407L44.2035 29.6339Z" fill="#595653"/>
<path d="M67.5912 29.6339H67.0283C67.0283 29.6279 67.0256 29.6219 67.0244 29.6163L67.009 29.5475C66.9991 29.5022 66.9884 29.4573 66.9774 29.4127C66.9727 29.3918 66.9675 29.3708 66.9624 29.3499C66.9478 29.2911 66.9324 29.2323 66.9166 29.1736L66.9119 29.1568C66.8945 29.0931 66.8763 29.0298 66.8574 28.9666L66.8384 28.9056C66.8254 28.8622 66.8116 28.8192 66.799 28.7761C66.7915 28.7526 66.7836 28.7294 66.7761 28.7062C66.7623 28.6646 66.748 28.6231 66.7334 28.5819C66.7259 28.5602 66.718 28.5381 66.7105 28.5168C66.6921 28.4652 66.6732 28.4139 66.6537 28.363C66.6494 28.3521 66.6458 28.3417 66.6415 28.3308C66.6186 28.2709 66.5945 28.2114 66.57 28.1519C66.5613 28.1302 66.5522 28.1089 66.5432 28.0875C66.5266 28.0501 66.51 28.009 66.493 27.97L66.4611 27.8978C66.4445 27.8604 66.4275 27.823 66.4101 27.7855C66.3995 27.7623 66.3884 27.7387 66.3774 27.7155C66.3572 27.6725 66.3379 27.6298 66.3154 27.5875C66.3071 27.5715 66.2996 27.555 66.2913 27.5385C66.2633 27.4828 66.2345 27.4263 66.2053 27.3724L66.1658 27.3024L66.1101 27.201L66.0667 27.1261C66.0485 27.0947 66.0304 27.0632 66.0118 27.0318C65.9972 27.0063 65.9822 26.9809 65.9672 26.9569C65.9467 26.9229 65.9278 26.8896 65.9053 26.8559L65.8484 26.7646C65.8216 26.7227 65.7947 26.6804 65.7671 26.6388C65.7497 26.6126 65.7324 26.5868 65.7146 26.561C65.6968 26.5352 65.6775 26.5056 65.6585 26.4783C65.6396 26.451 65.6191 26.4237 65.6017 26.3967C65.5843 26.3698 65.5654 26.3454 65.5468 26.3219C65.5283 26.2983 65.5073 26.2668 65.4872 26.2395L65.4316 26.1647C65.3921 26.1149 65.3558 26.0651 65.3171 26.015L65.263 25.9465C65.2401 25.9177 65.2164 25.8892 65.1931 25.8608L65.141 25.7979C65.1169 25.7691 65.0925 25.7407 65.068 25.7118L65.0167 25.6527L64.9401 25.5659L64.8947 25.5157C64.8003 25.4121 64.7036 25.3099 64.6046 25.2104L64.5611 25.1666L64.4703 25.0779L64.4257 25.0352C64.3942 25.0049 64.3626 24.975 64.3306 24.9454L64.2978 24.9155C64.1861 24.8125 64.0712 24.7122 63.9544 24.6161L63.9224 24.5895C63.8864 24.5595 63.8501 24.53 63.8135 24.5008L63.7772 24.4716C63.7377 24.4417 63.7018 24.4121 63.6635 24.3825L63.6441 24.3679C63.515 24.2691 63.3828 24.173 63.2494 24.0805L63.2308 24.0674C63.1886 24.0386 63.1463 24.0102 63.1037 23.9821L63.0757 23.9637C63.0323 23.9349 62.9884 23.9069 62.9446 23.8788L62.9371 23.8743C62.7919 23.7822 62.6438 23.694 62.493 23.6097L62.4871 23.606C62.4394 23.5794 62.3916 23.5536 62.3438 23.5278L62.3229 23.5165C62.0687 23.3806 61.8076 23.2558 61.5397 23.1423L61.5231 23.1352C61.4525 23.1052 61.3814 23.0764 61.3096 23.048H62.7224C62.9525 23.048 63.1392 22.7969 63.1392 22.4866C63.1392 22.1764 62.9525 21.9252 62.7224 21.9252H62.3016C62.3276 21.8624 62.3565 21.7913 62.3876 21.7112C62.7855 21.4762 63.4858 20.9754 64.1806 20.0555L64.1861 20.0484C64.2388 19.9796 64.2905 19.9083 64.3413 19.8347L64.3515 19.8201C64.402 19.7479 64.4526 19.6734 64.5023 19.5956L64.5157 19.575C64.5394 19.5376 64.5631 19.5001 64.5868 19.4627C64.5868 19.4627 64.5868 19.4597 64.5896 19.4579C64.614 19.4204 64.6381 19.3793 64.6622 19.3392L64.6776 19.3134C64.6981 19.279 64.719 19.2438 64.7392 19.2082C64.7431 19.2019 64.7471 19.1955 64.7506 19.1888C64.7739 19.1484 64.7972 19.1072 64.8201 19.0656L64.8359 19.0368C64.8548 19.0024 64.8734 18.9676 64.8919 18.9324C64.8975 18.9227 64.903 18.9126 64.9081 18.9025C64.9302 18.8602 64.9523 18.8175 64.9744 18.7741L64.9898 18.7438C65.0072 18.7086 65.025 18.6727 65.0423 18.6368L65.0613 18.5993C65.0826 18.5552 65.1035 18.5103 65.1244 18.465L65.1375 18.4362C65.1548 18.3987 65.1718 18.3613 65.1888 18.3239L65.2089 18.279C65.2287 18.2337 65.2484 18.188 65.2673 18.142C65.2709 18.1338 65.2744 18.1252 65.2776 18.1169C65.2954 18.0746 65.3127 18.0316 65.3301 17.9882L65.3498 17.9388C65.366 17.8976 65.3822 17.8561 65.398 17.8146L65.4098 17.7831C65.4284 17.7337 65.4466 17.6832 65.4647 17.6334L65.4837 17.5803C65.4979 17.5406 65.5117 17.5002 65.5255 17.4598C65.5306 17.4448 65.5358 17.4298 65.5405 17.4149C65.5579 17.3632 65.5752 17.3104 65.5922 17.2577C65.5977 17.2393 65.6037 17.2203 65.6092 17.203L65.6487 17.0799C65.6538 17.0619 65.6593 17.0425 65.6645 17.0264C65.6806 16.9721 65.6968 16.9167 65.7122 16.861C65.7174 16.8434 65.7221 16.8254 65.7268 16.8075C65.7387 16.7644 65.7505 16.7214 65.762 16.6776C65.7671 16.6578 65.7722 16.6379 65.7777 16.6181C65.7924 16.5605 65.807 16.5025 65.8212 16.4437L65.833 16.3947C65.8441 16.3479 65.8551 16.3007 65.8658 16.2532L65.88 16.1896C65.8934 16.1286 65.9068 16.0676 65.9195 16.0055C65.9222 15.9935 65.9246 15.9811 65.927 15.968C65.938 15.9145 65.9487 15.8603 65.9589 15.806C65.9633 15.7839 65.9672 15.7618 65.9716 15.7397C65.9818 15.684 65.9917 15.6275 66.0016 15.5717C66.0035 15.5597 66.0059 15.5481 66.0079 15.5365C66.0189 15.4707 66.0297 15.4043 66.0403 15.3374C66.0438 15.315 66.0474 15.2925 66.0505 15.2697C66.0588 15.2154 66.0667 15.1608 66.0746 15.1054L66.0817 15.0545C66.0912 14.9856 66.1003 14.9164 66.1089 14.846C66.1117 14.824 66.1141 14.8019 66.1168 14.7794C66.1237 14.7235 66.13 14.6674 66.1358 14.611C66.1382 14.5908 66.1405 14.571 66.1425 14.5508C66.1501 14.4784 66.1572 14.4054 66.1638 14.3318C66.1638 14.3113 66.1674 14.2907 66.1689 14.2697C66.1741 14.2106 66.1792 14.1511 66.1836 14.0912C66.1836 14.0691 66.1871 14.047 66.1887 14.025C66.1942 13.9486 66.1993 13.8718 66.2041 13.7944C66.2041 13.7768 66.2041 13.757 66.2068 13.7413C66.2104 13.6769 66.2139 13.6122 66.2167 13.5471C66.2167 13.5235 66.2167 13.4999 66.2199 13.4763C66.223 13.3959 66.2262 13.315 66.2286 13.2331C66.2286 13.2218 66.2286 13.2102 66.2286 13.1986C66.2307 13.1258 66.2322 13.0522 66.2333 12.9778C66.2333 12.9535 66.2333 12.9292 66.2333 12.9048C66.2333 12.825 66.2333 12.7447 66.2333 12.6638V12.6451C66.2333 12.559 66.2333 12.4718 66.2333 12.3832V12.3083C66.2333 12.2335 66.2301 12.1549 66.2282 12.077V12.0347C66.2254 11.9449 66.2218 11.854 66.2183 11.7627C66.2183 11.7391 66.2159 11.7151 66.2151 11.6915C66.2117 11.6147 66.2078 11.5374 66.2033 11.4595C66.2033 11.4404 66.2033 11.4221 66.2001 11.4015C66.1946 11.3079 66.1886 11.2136 66.182 11.1186L66.1772 11.0523C66.1713 10.973 66.1654 10.8933 66.1587 10.8128C66.1587 10.7896 66.1551 10.7664 66.1532 10.7432C66.1449 10.6459 66.1358 10.5475 66.1263 10.4487C66.1263 10.43 66.1224 10.4113 66.1208 10.3922C66.1125 10.308 66.1034 10.223 66.0943 10.1373C66.0916 10.1115 66.0888 10.086 66.0857 10.0602C66.0746 9.95843 66.0628 9.85626 66.0501 9.75259C66.0501 9.73987 66.0466 9.72715 66.045 9.71517C66.0337 9.62236 66.0217 9.52905 66.0091 9.43524C66.0051 9.40754 66.0016 9.37985 65.9976 9.35216C65.9829 9.24587 65.9678 9.13871 65.9522 9.03068C64.3732 -1.62554 53.1837 0.103841 53.1837 0.103841L53.5421 2.39347L46.7749 9.17102L47.0706 11.7881L49.6341 13.2851C49.7484 13.0097 49.8951 12.7474 50.0715 12.5033C51.7255 10.6946 54.9344 9.27468 55.853 8.98015C56.0369 8.9214 56.1415 8.89183 56.1415 8.89183C51.7476 14.2832 52.2473 20.4597 52.4431 21.932C52.2394 21.9694 52.0819 22.2026 52.0819 22.487C52.0819 22.7969 52.2686 23.0484 52.4988 23.0484H53.9116C51.5619 23.9808 49.6968 25.7567 48.7234 27.9884C48.7222 27.9914 48.7209 27.9944 48.7194 27.9973C48.6476 28.163 48.5808 28.331 48.5189 28.5015C48.519 28.5032 48.519 28.5049 48.5189 28.5067C48.5023 28.5531 48.4861 28.5995 48.4704 28.6463C48.4644 28.6631 48.4585 28.68 48.453 28.6972C48.4388 28.7391 48.4256 28.7814 48.4135 28.8241C48.4064 28.8458 48.3997 28.8678 48.393 28.8895C48.3803 28.9296 48.3681 28.97 48.3563 29.0104L48.335 29.0853C48.3239 29.1227 48.3128 29.1627 48.3026 29.2017C48.2951 29.2294 48.288 29.2567 48.2809 29.2844C48.2714 29.3218 48.2615 29.3592 48.2525 29.3966C48.2434 29.4341 48.2347 29.4715 48.226 29.5112C48.2173 29.5508 48.2063 29.5972 48.1968 29.6407H47.6335C47.5252 29.6384 47.4175 29.6567 47.3167 29.6944C47.2159 29.7321 47.1241 29.7886 47.0466 29.8604C46.9692 29.9322 46.9077 30.018 46.8656 30.1127C46.8236 30.2074 46.802 30.3091 46.802 30.4118C46.802 30.5145 46.8236 30.6162 46.8656 30.7109C46.9077 30.8056 46.9692 30.8913 47.0466 30.9632C47.1241 31.035 47.2159 31.0914 47.3167 31.1292C47.4175 31.1669 47.5252 31.1852 47.6335 31.1829H67.5983C67.7067 31.1852 67.8144 31.1669 67.9151 31.1292C68.0159 31.0914 68.1077 31.035 68.1852 30.9632C68.2626 30.8913 68.3242 30.8056 68.3662 30.7109C68.4082 30.6162 68.4298 30.5145 68.4298 30.4118C68.4298 30.3091 68.4082 30.2074 68.3662 30.1127C68.3242 30.018 68.2626 29.9322 68.1852 29.8604C68.1077 29.7886 68.0159 29.7321 67.9151 29.6944C67.8144 29.6567 67.7067 29.6384 67.5983 29.6407L67.5912 29.6339Z" fill="#595653"/>
<path d="M90.9784 29.6339H90.4155C90.4155 29.6279 90.4128 29.6219 90.4116 29.6163L90.3962 29.5475C90.3863 29.5022 90.3757 29.4573 90.3646 29.4127C90.3599 29.3918 90.3547 29.3708 90.3496 29.3499C90.335 29.2911 90.3196 29.2323 90.3038 29.1736L90.2991 29.1568C90.2817 29.0931 90.2635 29.0298 90.2446 28.9666L90.2256 28.9056C90.2126 28.8622 90.1988 28.8192 90.1862 28.7761C90.1787 28.7526 90.1708 28.7294 90.1633 28.7062C90.1495 28.6646 90.1352 28.6231 90.1206 28.5819C90.1131 28.5602 90.1052 28.5381 90.0977 28.5168C90.0793 28.4652 90.0604 28.4139 90.0409 28.363C90.0366 28.3521 90.033 28.3417 90.0287 28.3308C90.0058 28.2709 89.9817 28.2114 89.9572 28.1519C89.9485 28.1302 89.9395 28.1089 89.9304 28.0875C89.9138 28.0501 89.8972 28.009 89.8802 27.97L89.8483 27.8978C89.8317 27.8604 89.8147 27.823 89.7973 27.7855C89.7867 27.7623 89.7756 27.7387 89.7646 27.7155C89.7444 27.6725 89.7251 27.6298 89.7026 27.5875C89.6943 27.5715 89.6868 27.555 89.6785 27.5385C89.6505 27.4828 89.6217 27.4263 89.5925 27.3724L89.553 27.3024L89.4973 27.201L89.4539 27.1261C89.4358 27.0947 89.4176 27.0632 89.399 27.0318C89.3844 27.0063 89.3694 26.9809 89.3544 26.9569C89.3339 26.9229 89.315 26.8896 89.2925 26.8559L89.2356 26.7646C89.2088 26.7227 89.1819 26.6804 89.1543 26.6388C89.1369 26.6126 89.1196 26.5868 89.1018 26.561C89.084 26.5352 89.0647 26.5056 89.0457 26.4783C89.0268 26.451 89.0063 26.4237 88.9889 26.3967C88.9715 26.3698 88.9526 26.3454 88.934 26.3219C88.9155 26.2983 88.8946 26.2668 88.8744 26.2395L88.8188 26.1647C88.7793 26.1149 88.743 26.0651 88.7043 26.015L88.6502 25.9465C88.6273 25.9177 88.6036 25.8892 88.5803 25.8608L88.5282 25.7979C88.5041 25.7691 88.4797 25.7407 88.4552 25.7118L88.4039 25.6527L88.3273 25.5659L88.2819 25.5157C88.1876 25.4121 88.0908 25.3099 87.9918 25.2104L87.9483 25.1666L87.8575 25.0779L87.8129 25.0352C87.7814 25.0049 87.7498 24.975 87.7178 24.9454L87.685 24.9155C87.5733 24.8125 87.4585 24.7122 87.3416 24.6161L87.3096 24.5895C87.2736 24.5595 87.2373 24.53 87.2007 24.5008L87.1644 24.4716C87.1249 24.4417 87.089 24.4121 87.0507 24.3825L87.0313 24.3679C86.9023 24.2691 86.77 24.173 86.6366 24.0805L86.618 24.0674C86.5758 24.0386 86.5336 24.0102 86.4909 23.9821L86.4629 23.9637C86.4195 23.9349 86.3757 23.9069 86.3318 23.8788L86.3243 23.8743C86.1791 23.7822 86.031 23.694 85.8802 23.6097L85.8743 23.606C85.8266 23.5794 85.7788 23.5536 85.731 23.5278L85.7101 23.5165C85.4559 23.3806 85.1948 23.2558 84.9269 23.1423L84.9103 23.1352C84.8397 23.1052 84.7686 23.0764 84.6968 23.048H86.1096C86.3397 23.048 86.5265 22.7969 86.5265 22.4866C86.5265 22.1764 86.3397 21.9252 86.1096 21.9252H85.6888C85.7148 21.8624 85.7437 21.7913 85.7748 21.7112C86.1728 21.4762 86.873 20.9754 87.5678 20.0555L87.5733 20.0484C87.626 19.9796 87.6777 19.9083 87.7285 19.8347L87.7387 19.8201C87.7893 19.7479 87.8398 19.6734 87.8895 19.5956L87.9029 19.575C87.9266 19.5376 87.9503 19.5001 87.974 19.4627C87.974 19.4627 87.974 19.4597 87.9768 19.4579C88.0012 19.4204 88.0253 19.3793 88.0494 19.3392L88.0648 19.3134C88.0853 19.279 88.1062 19.2438 88.1264 19.2082C88.1303 19.2019 88.1343 19.1955 88.1378 19.1888C88.1611 19.1484 88.1844 19.1072 88.2073 19.0656L88.2231 19.0368C88.242 19.0024 88.2606 18.9676 88.2791 18.9324C88.2847 18.9227 88.2902 18.9126 88.2953 18.9025C88.3174 18.8602 88.3395 18.8175 88.3616 18.7741L88.377 18.7438C88.3944 18.7086 88.4122 18.6727 88.4295 18.6368L88.4485 18.5993C88.4698 18.5552 88.4907 18.5103 88.5116 18.465L88.5247 18.4362C88.542 18.3987 88.559 18.3613 88.576 18.3239L88.5961 18.279C88.6159 18.2337 88.6356 18.188 88.6545 18.142C88.6581 18.1338 88.6616 18.1252 88.6648 18.1169C88.6826 18.0746 88.6999 18.0316 88.7173 17.9882L88.737 17.9388C88.7532 17.8976 88.7694 17.8561 88.7852 17.8146L88.7971 17.7831C88.8156 17.7337 88.8338 17.6832 88.8519 17.6334L88.8709 17.5803C88.8851 17.5406 88.8989 17.5002 88.9127 17.4598C88.9178 17.4448 88.923 17.4298 88.9277 17.4149C88.9451 17.3632 88.9625 17.3104 88.9794 17.2577C88.985 17.2393 88.9909 17.2203 88.9964 17.203L89.0359 17.0799C89.041 17.0619 89.0465 17.0425 89.0517 17.0264C89.0678 16.9721 89.084 16.9167 89.0994 16.861C89.1046 16.8434 89.1093 16.8254 89.114 16.8075C89.1259 16.7644 89.1377 16.7214 89.1492 16.6776C89.1543 16.6578 89.1594 16.6379 89.165 16.6181C89.1796 16.5605 89.1942 16.5025 89.2084 16.4437L89.2202 16.3947C89.2313 16.3479 89.2423 16.3007 89.253 16.2532L89.2672 16.1896C89.2806 16.1286 89.294 16.0676 89.3067 16.0055C89.3094 15.9935 89.3118 15.9811 89.3142 15.968C89.3252 15.9145 89.3359 15.8603 89.3461 15.806C89.3505 15.7839 89.3544 15.7618 89.3588 15.7397C89.369 15.684 89.3789 15.6275 89.3888 15.5717C89.3908 15.5597 89.3931 15.5481 89.3951 15.5365C89.4061 15.4707 89.4169 15.4043 89.4275 15.3374C89.431 15.315 89.4346 15.2925 89.4377 15.2697C89.446 15.2154 89.4539 15.1608 89.4618 15.1054L89.4689 15.0545C89.4784 14.9856 89.4875 14.9164 89.4962 14.846C89.4989 14.824 89.5013 14.8019 89.504 14.7794C89.5109 14.7235 89.5172 14.6674 89.523 14.611C89.5254 14.5908 89.5277 14.571 89.5297 14.5508C89.5373 14.4784 89.5444 14.4054 89.551 14.3318C89.551 14.3113 89.5546 14.2907 89.5562 14.2697C89.5613 14.2106 89.5664 14.1511 89.5708 14.0912C89.5708 14.0691 89.5743 14.047 89.5759 14.025C89.5814 13.9486 89.5865 13.8718 89.5913 13.7944C89.5913 13.7768 89.5913 13.757 89.594 13.7413C89.5976 13.6769 89.6012 13.6122 89.6039 13.5471C89.6039 13.5235 89.6039 13.4999 89.6071 13.4763C89.6102 13.3959 89.6134 13.315 89.6158 13.2331C89.6158 13.2218 89.6158 13.2102 89.6158 13.1986C89.6179 13.1258 89.6194 13.0522 89.6205 12.9778C89.6205 12.9535 89.6205 12.9292 89.6205 12.9048C89.6205 12.825 89.6205 12.7447 89.6205 12.6638V12.6451C89.6205 12.559 89.6205 12.4718 89.6205 12.3832V12.3083C89.6205 12.2335 89.6173 12.1549 89.6154 12.077V12.0347C89.6126 11.9449 89.6091 11.854 89.6055 11.7627C89.6055 11.7391 89.6031 11.7151 89.6023 11.6915C89.5989 11.6147 89.595 11.5374 89.5905 11.4595C89.5905 11.4404 89.5905 11.4221 89.5873 11.4015C89.5818 11.3079 89.5758 11.2136 89.5692 11.1186L89.5644 11.0523C89.5585 10.973 89.5526 10.8933 89.5459 10.8128C89.5459 10.7896 89.5423 10.7664 89.5404 10.7432C89.5321 10.6459 89.523 10.5475 89.5135 10.4487C89.5135 10.43 89.5096 10.4113 89.508 10.3922C89.4997 10.308 89.4906 10.223 89.4815 10.1373C89.4788 10.1115 89.476 10.086 89.4729 10.0602C89.4618 9.95843 89.45 9.85626 89.4373 9.75259C89.4373 9.73987 89.4338 9.72715 89.4322 9.71517C89.4209 9.62236 89.4089 9.52905 89.3963 9.43524C89.3923 9.40754 89.3888 9.37985 89.3848 9.35216C89.3701 9.24587 89.355 9.13871 89.3394 9.03068C87.7604 -1.62554 76.5709 0.103841 76.5709 0.103841L76.9293 2.39347L70.1621 9.17102L70.4578 11.7881L73.0213 13.2851C73.1356 13.0097 73.2823 12.7474 73.4587 12.5033C75.1127 10.6946 78.3216 9.27468 79.2402 8.98015C79.4241 8.9214 79.5287 8.89183 79.5287 8.89183C75.1348 14.2832 75.6345 20.4597 75.8303 21.932C75.6266 21.9694 75.4691 22.2026 75.4691 22.487C75.4691 22.7969 75.6558 23.0484 75.886 23.0484H77.2988C74.9491 23.9808 73.084 25.7567 72.1106 27.9884C72.1094 27.9914 72.1081 27.9944 72.1066 27.9973C72.0348 28.163 71.968 28.331 71.9061 28.5015C71.9062 28.5032 71.9062 28.5049 71.9061 28.5067C71.8895 28.5531 71.8734 28.5995 71.8576 28.6463C71.8516 28.6631 71.8457 28.68 71.8402 28.6972C71.826 28.7391 71.8128 28.7814 71.8007 28.8241C71.7936 28.8458 71.7869 28.8678 71.7802 28.8895C71.7676 28.9296 71.7553 28.97 71.7435 29.0104L71.7222 29.0853C71.7111 29.1227 71.7001 29.1627 71.6898 29.2017C71.6823 29.2294 71.6752 29.2567 71.6681 29.2844C71.6586 29.3218 71.6487 29.3592 71.6397 29.3966C71.6306 29.4341 71.6219 29.4715 71.6132 29.5112C71.6045 29.5508 71.5935 29.5972 71.584 29.6407H71.0207C70.9124 29.6384 70.8047 29.6567 70.7039 29.6944C70.6031 29.7321 70.5113 29.7886 70.4339 29.8604C70.3564 29.9322 70.2949 30.018 70.2528 30.1127C70.2108 30.2074 70.1892 30.3091 70.1892 30.4118C70.1892 30.5145 70.2108 30.6162 70.2528 30.7109C70.2949 30.8056 70.3564 30.8913 70.4339 30.9632C70.5113 31.035 70.6031 31.0914 70.7039 31.1292C70.8047 31.1669 70.9124 31.1852 71.0207 31.1829H90.9855C91.0939 31.1852 91.2016 31.1669 91.3023 31.1292C91.4031 31.0914 91.4949 31.035 91.5724 30.9632C91.6498 30.8913 91.7114 30.8056 91.7534 30.7109C91.7954 30.6162 91.817 30.5145 91.817 30.4118C91.817 30.3091 91.7954 30.2074 91.7534 30.1127C91.7114 30.018 91.6498 29.9322 91.5724 29.8604C91.4949 29.7886 91.4031 29.7321 91.3023 29.6944C91.2016 29.6567 91.0939 29.6384 90.9855 29.6407L90.9784 29.6339Z" fill="#595653"/>
</svg>
